# xmcd
#
# Track frame offsets:
#	150
#	2372
#	4290
#	6135
#	8742
#	10912
#	15622
#	22704
#	26481
#	31310
#	41543
#	54827
#	58494
#	63720
#	70370
#	79519
#	80515
#	81682
#	88604
#	97661
#	102278
#	110945
#	122262
#	123747
#	127241
#	128776
#	132265
#	135756
#	137008
#	137907
#	141406
#	149954
#	154785
#	156929
#	158280
#	160806
#	164568
#	166687
#	170810
#	174487
#	178547
#	181517
#	183516
#	188646
#	194612
#	196816
#	198607
#	200799
#	202709
#	207317
#	212997
#	215587
#	219629
#	224264
#	230180
#	232989
#	235989
#	238621
#	240306
#	242916
#	244678
#	249614
#
# Disc length: 3389 seconds
#
# Revision: 1
# Processed by: cddbd v1.5.2PL0 Copyright (c) Steve Scherf et al.
# Submitted via: audiograbber 1.83.01
#
DISCID=760d3b3e
DTITLE=Doug Boduch - Guitar Signature Licks - Johnny Winter
DYEAR=2011
DGENRE=General Blues
TTITLE0=The Recording Tuning
TTITLE1=Bad Luck Situation - Intro. [Full]
TTITLE2=Bad Luck Situation - Intro. [Slow]
TTITLE3=Bad Luck Situation - Verse [Full]
TTITLE4=Bad Luck Situation - Verse [Slow]
TTITLE5=Bad Luck Situation - Solo [Full]
TTITLE6=Bad Luck Situation - Solo [Slow]
TTITLE7=Be Careful With A Fool - 2nd. Verse [Full]
TTITLE8=Be Careful With A Fool - 2nd. Verse [Slow]
TTITLE9=Be Careful With A Fool - Solo [Full]
TTITLE10=Be Careful With A Fool - Solo [Slow]
TTITLE11=Bladie Man - 1st. Verse [Full]
TTITLE12=Bladie Man - 1st. Verse [Slow]
TTITLE13=Bladie Man - Solo [Full]
TTITLE14=Bladie Man - Solo [Slow]
TTITLE15=Highway 61 Revisited - Intro. [Full]
TTITLE16=Highway 61 Revisited - Intro. [Slow]
TTITLE17=Highway 61 Revisited - 5th. Verse [Full]
TTITLE18=Highway 61 Revisited - 5th. Verse [Slow]
TTITLE19=It Was Raining - Intro. [Full]
TTITLE20=It Was Raining - Solo [Full]
TTITLE21=It Was Raining - Solo [Slow]
TTITLE22=Leland Mississippi - Intro. [Full]
TTITLE23=Leland Mississippi - 2nd. Verse [Full]
TTITLE24=Leland Mississippi - 2nd. Verse [Slow]
TTITLE25=Leland Mississippi - Solo [Full]
TTITLE26=Leland Mississippi - Solo [Slow]
TTITLE27=Mean Town Blues - Intro. [Full]
TTITLE28=Mean Town Blues - Intro. [Slow]
TTITLE29=Mean Town Blues - Verse [Full]
TTITLE30=Mean Town Blues - Solo [Full]
TTITLE31=Mean Town Blues - Solo [Slow]
TTITLE32=Rock And Roll Hoochie Koo - 1st. Verse [Full]
TTITLE33=Rock And Roll Hoochie Koo - 1st. Verse [Slow]
TTITLE34=Rock And Roll Hoochie Koo - Chorus [Full]
TTITLE35=Rock And Roll Hoochie Koo - Chorus [Slow]
TTITLE36=Rock And Roll Hoochie Koo - Solo [Full]
TTITLE37=Rock And Roll Hoochie Koo - Solo [Slow]
TTITLE38=Rock Me Baby - Intro. [Full]
TTITLE39=Rock Me Baby - Intro. [Slow]
TTITLE40=Rock Me Baby - Verse [Full]
TTITLE41=Rock Me Baby - Verse [Slow]
TTITLE42=Rock Me Baby - Solo [Full]
TTITLE43=Rock Me Baby - Solo [Slow]
TTITLE44=Still Alive And Well - Verse [Full]
TTITLE45=Still Alive And Well - Verse [Slow]
TTITLE46=Still Alive And Well - Chorus [Full]
TTITLE47=Still Alive And Well - Chorus [Slow]
TTITLE48=Still Alive And Well - Solo [Full]
TTITLE49=Still Alive And Well - Solo [Slow]
TTITLE50=Sweet Love and Evil Woman - 1st. Verse [Full]
TTITLE51=Sweet Love and Evil Woman - 1st. Verse [Slow]
TTITLE52=Sweet Love and Evil Woman - Solo [Full]
TTITLE53=Sweet Love and Evil Woman - Solo [Slow]
TTITLE54=Sweet Love and Evil Woman - Outro Chorus [Full]
TTITLE55=Sweet Love and Evil Woman - Outro Chorus [Slow]
TTITLE56=TV Mama - Verse [Full]
TTITLE57=TV Mama - Verse [Slow]
TTITLE58=TV Mama - 3rd. Verse [Full]
TTITLE59=TV Mama - 3rd. Verse [Slow]
TTITLE60=TV Mama - Solo [Full]
TTITLE61=TV Mama - Solo [Slow]
EXTD=
EXTT0=
EXTT1=
EXTT2=
EXTT3=
EXTT4=
EXTT5=
EXTT6=
EXTT7=
EXTT8=
EXTT9=
EXTT10=
EXTT11=
EXTT12=
EXTT13=
EXTT14=
EXTT15=
EXTT16=
EXTT17=
EXTT18=
EXTT19=
EXTT20=
EXTT21=
EXTT22=
EXTT23=
EXTT24=
EXTT25=
EXTT26=
EXTT27=
EXTT28=
EXTT29=
EXTT30=
EXTT31=
EXTT32=
EXTT33=
EXTT34=
EXTT35=
EXTT36=
EXTT37=
EXTT38=
EXTT39=
EXTT40=
EXTT41=
EXTT42=
EXTT43=
EXTT44=
EXTT45=
EXTT46=
EXTT47=
EXTT48=
EXTT49=
EXTT50=
EXTT51=
EXTT52=
EXTT53=
EXTT54=
EXTT55=
EXTT56=
EXTT57=
EXTT58=
EXTT59=
EXTT60=
EXTT61=
PLAYORDER=
